<svg width="14" height="14" viewBox="0 0 14 14" fill="none" xmlns="http://www.w3.org/2000/svg">
<path d="M7 9.1875C7.9665 9.1875 8.75 8.404 8.75 7.4375C8.75 6.471 7.9665 5.6875 7 5.6875C6.0335 5.6875 5.25 6.471 5.25 7.4375C5.25 8.404 6.0335 9.1875 7 9.1875Z" fill="#959595"/>
<path d="M11.8125 3.9375H10.1992C10.1172 3.9375 10.0155 3.88445 9.93617 3.80078L9.22688 2.68133C9.21566 2.66356 9.20314 2.64665 9.18941 2.63074C8.94441 2.345 8.61328 2.1875 8.25781 2.1875H5.74219C5.38672 2.1875 5.05559 2.345 4.81059 2.63074C4.79686 2.64665 4.78434 2.66356 4.77312 2.68133L4.06383 3.80242C4.00312 3.86859 3.91781 3.93914 3.82812 3.93914V3.72039C3.82812 3.60436 3.78203 3.49308 3.69998 3.41103C3.61794 3.32898 3.50666 3.28289 3.39062 3.28289H2.73438C2.61834 3.28289 2.50706 3.32898 2.42502 3.41103C2.34297 3.49308 2.29688 3.60436 2.29688 3.72039V3.93914H2.1875C1.83951 3.9395 1.50589 4.0779 1.25982 4.32396C1.01376 4.57003 0.875362 4.90366 0.875 5.25164V10.5C0.875362 10.848 1.01376 11.1816 1.25982 11.4277C1.50589 11.6737 1.83951 11.8121 2.1875 11.8125H11.8125C12.1605 11.8121 12.4941 11.6737 12.7402 11.4277C12.9862 11.1816 13.1246 10.848 13.125 10.5V5.25C13.1246 4.90201 12.9862 4.56838 12.7402 4.32232C12.4941 4.07626 12.1605 3.93786 11.8125 3.9375ZM7 10.0625C6.48082 10.0625 5.97331 9.90855 5.54163 9.62011C5.10995 9.33167 4.7735 8.9217 4.57482 8.44204C4.37614 7.96239 4.32415 7.43459 4.42544 6.92539C4.52673 6.41619 4.77673 5.94846 5.14384 5.58134C5.51096 5.21423 5.97869 4.96423 6.48789 4.86294C6.99709 4.76165 7.52489 4.81364 8.00454 5.01232C8.4842 5.211 8.89417 5.54745 9.18261 5.97913C9.47105 6.41081 9.625 6.91832 9.625 7.4375C9.6242 8.13345 9.34739 8.80067 8.85528 9.29278C8.36317 9.78489 7.69595 10.0617 7 10.0625Z" fill="#959595"/>
</svg>
