<svg width="18" height="18" viewBox="0 0 18 18" fill="none" xmlns="http://www.w3.org/2000/svg">
<path d="M9 3.375C9.44755 3.375 9.87678 3.19721 10.1932 2.88074C10.5097 2.56428 10.6875 2.13505 10.6875 1.6875C10.6875 1.23995 10.5097 0.810725 10.1932 0.494257C9.87678 0.17779 9.44755 0 9 0C8.55245 0 8.12322 0.17779 7.80676 0.494257C7.49029 0.810725 7.3125 1.23995 7.3125 1.6875C7.3125 2.13505 7.49029 2.56428 7.80676 2.88074C8.12322 3.19721 8.55245 3.375 9 3.375ZM6.75 7.59375V17.1562C6.75 17.38 6.83889 17.5946 6.99713 17.7529C7.15536 17.9111 7.36997 18 7.59375 18C7.81753 18 8.03214 17.9111 8.19037 17.7529C8.34861 17.5946 8.4375 17.38 8.4375 17.1562V11.8125C8.4375 11.6633 8.49676 11.5202 8.60225 11.4148C8.70774 11.3093 8.85082 11.25 9 11.25C9.14918 11.25 9.29226 11.3093 9.39775 11.4148C9.50324 11.5202 9.5625 11.6633 9.5625 11.8125V17.1562C9.5625 17.38 9.6514 17.5946 9.80963 17.7529C9.96786 17.9111 10.1825 18 10.4062 18C10.63 18 10.8446 17.9111 11.0029 17.7529C11.1611 17.5946 11.25 17.38 11.25 17.1562V7.59375C11.25 7.51916 11.2796 7.44762 11.3324 7.39488C11.3851 7.34213 11.4567 7.3125 11.5312 7.3125C11.6058 7.3125 11.6774 7.34213 11.7301 7.39488C11.7829 7.44762 11.8125 7.51916 11.8125 7.59375V10.4062C11.8125 10.63 11.9014 10.8446 12.0596 11.0029C12.2179 11.1611 12.4325 11.25 12.6562 11.25C12.88 11.25 13.0946 11.1611 13.2529 11.0029C13.4111 10.8446 13.5 10.63 13.5 10.4062V7.3125C13.5 6.41739 13.1444 5.55895 12.5115 4.92601C11.8786 4.29308 11.0201 3.9375 10.125 3.9375H7.875C6.97989 3.9375 6.12145 4.29308 5.48851 4.92601C4.85558 5.55895 4.5 6.41739 4.5 7.3125V10.4062C4.5 10.63 4.58889 10.8446 4.74713 11.0029C4.90536 11.1611 5.11997 11.25 5.34375 11.25C5.56753 11.25 5.78214 11.1611 5.94037 11.0029C6.09861 10.8446 6.1875 10.63 6.1875 10.4062V7.59375C6.1875 7.51916 6.21713 7.44762 6.26988 7.39488C6.32262 7.34213 6.39416 7.3125 6.46875 7.3125C6.54334 7.3125 6.61488 7.34213 6.66762 7.39488C6.72037 7.44762 6.75 7.51916 6.75 7.59375Z" fill="white"/>
</svg>
