<svg width="19" height="69" viewBox="0 0 19 69" fill="none" xmlns="http://www.w3.org/2000/svg">
<path d="M9.5 17V51" stroke="#979797" stroke-dasharray="3"/>
<path d="M15.6528 9C15.6528 12.2139 12.9221 15 9.32642 15C5.7308 15 3 12.2139 3 9C3 5.78614 5.7308 3 9.32642 3C12.9221 3 15.6528 5.78614 15.6528 9Z" fill="white" stroke="#EA6D1B" stroke-width="6"/>
<path d="M9.25389 49C5.24352 49 2 52.13 2 56C2 61.25 9.25389 69 9.25389 69C9.25389 69 16.5078 61.25 16.5078 56C16.5078 52.13 13.2642 49 9.25389 49ZM9.25389 58.5C8.5668 58.5 7.90785 58.2366 7.422 57.7678C6.93616 57.2989 6.66321 56.663 6.66321 56C6.66321 55.337 6.93616 54.7011 7.422 54.2322C7.90785 53.7634 8.5668 53.5 9.25389 53.5C9.94097 53.5 10.5999 53.7634 11.0858 54.2322C11.5716 54.7011 11.8446 55.337 11.8446 56C11.8446 56.663 11.5716 57.2989 11.0858 57.7678C10.5999 58.2366 9.94097 58.5 9.25389 58.5Z" fill="#EA6D1B"/>
</svg>
