<svg width="21" height="20" viewBox="0 0 21 20" fill="none" xmlns="http://www.w3.org/2000/svg">
<path d="M10.3627 0C4.6398 0 0 4.4774 0 10C0 15.5226 4.6398 20 10.3627 20C16.0856 20 20.7254 15.5226 20.7254 10C20.7254 4.4774 16.0856 0 10.3627 0ZM15.1455 11.5385H10.3627C10.1513 11.5385 9.94853 11.4574 9.79904 11.3132C9.64955 11.1689 9.56556 10.9732 9.56556 10.7692V3.84615C9.56556 3.64214 9.64955 3.44648 9.79904 3.30223C9.94853 3.15797 10.1513 3.07692 10.3627 3.07692C10.5741 3.07692 10.7769 3.15797 10.9264 3.30223C11.0758 3.44648 11.1598 3.64214 11.1598 3.84615V10H15.1455C15.3569 10 15.5596 10.081 15.7091 10.2253C15.8586 10.3696 15.9426 10.5652 15.9426 10.7692C15.9426 10.9732 15.8586 11.1689 15.7091 11.3132C15.5596 11.4574 15.3569 11.5385 15.1455 11.5385Z" fill="#EA6D1B"/>
</svg>
