<svg width="44" height="24" viewBox="0 0 44 24" fill="none" xmlns="http://www.w3.org/2000/svg">
<path d="M3.99999 0H29.9999L35.9999 7.99997H39.9999C42.2199 7.99997 43.9999 9.77996 43.9999 12V17.9999H39.9999C39.9999 19.5912 39.3677 21.1173 38.2425 22.2426C37.1173 23.3678 35.5912 23.9999 33.9999 23.9999C32.4086 23.9999 30.8825 23.3678 29.7573 22.2426C28.632 21.1173 27.9999 19.5912 27.9999 17.9999H15.9999C15.9999 19.5912 15.3678 21.1173 14.2426 22.2426C13.1174 23.3678 11.5913 23.9999 9.99997 23.9999C8.40867 23.9999 6.88255 23.3678 5.75734 22.2426C4.63213 21.1173 3.99999 19.5912 3.99999 17.9999H0V3.99998C0 1.77999 1.77999 0 3.99999 0ZM2.99999 2.99999V7.99997H18.9999V2.99999H2.99999ZM21.9999 2.99999V7.99997H32.2799L28.4999 2.99999H21.9999ZM9.99997 14.9999C9.20432 14.9999 8.44126 15.316 7.87865 15.8786C7.31605 16.4412 6.99998 17.2043 6.99998 17.9999C6.99998 18.7956 7.31605 19.5586 7.87865 20.1212C8.44126 20.6839 9.20432 20.9999 9.99997 20.9999C10.7956 20.9999 11.5587 20.6839 12.1213 20.1212C12.6839 19.5586 13 18.7956 13 17.9999C13 17.2043 12.6839 16.4412 12.1213 15.8786C11.5587 15.316 10.7956 14.9999 9.99997 14.9999ZM33.9999 14.9999C33.2042 14.9999 32.4412 15.316 31.8786 15.8786C31.316 16.4412 30.9999 17.2043 30.9999 17.9999C30.9999 18.7956 31.316 19.5586 31.8786 20.1212C32.4412 20.6839 33.2042 20.9999 33.9999 20.9999C34.7955 20.9999 35.5586 20.6839 36.1212 20.1212C36.6838 19.5586 36.9999 18.7956 36.9999 17.9999C36.9999 17.2043 36.6838 16.4412 36.1212 15.8786C35.5586 15.316 34.7955 14.9999 33.9999 14.9999Z" fill="#929292"/>
</svg>
