<svg width="44" height="24" viewBox="0 0 44 24" fill="none" xmlns="http://www.w3.org/2000/svg">
<path d="M30 0H10L0 11.6842V17.5263H4C4 19.0757 4.63214 20.5617 5.75736 21.6573C6.88258 22.7529 8.4087 23.3684 10 23.3684C11.5913 23.3684 13.1174 22.7529 14.2426 21.6573C15.3679 20.5617 16 19.0757 16 17.5263H28C28 19.0757 28.6322 20.5617 29.7574 21.6573C30.8826 22.7529 32.4087 23.3684 34 23.3684C35.5913 23.3684 37.1174 22.7529 38.2427 21.6573C39.3679 20.5617 40 19.0757 40 17.5263H44V11.6842C44 9.52263 42.22 7.78947 40 7.78947H36L30 0ZM11 2.92105H19V7.78947H7L11 2.92105ZM22 2.92105H29L32.92 7.78947H22V2.92105ZM10 14.6053C10.7957 14.6053 11.5587 14.913 12.1213 15.4608C12.6839 16.0086 13 16.7516 13 17.5263C13 18.301 12.6839 19.044 12.1213 19.5918C11.5587 20.1396 10.7957 20.4474 10 20.4474C9.20435 20.4474 8.44129 20.1396 7.87868 19.5918C7.31607 19.044 7 18.301 7 17.5263C7 16.7516 7.31607 16.0086 7.87868 15.4608C8.44129 14.913 9.20435 14.6053 10 14.6053ZM34 14.6053C34.7957 14.6053 35.5587 14.913 36.1213 15.4608C36.6839 16.0086 37 16.7516 37 17.5263C37 18.301 36.6839 19.044 36.1213 19.5918C35.5587 20.1396 34.7957 20.4474 34 20.4474C33.2044 20.4474 32.4413 20.1396 31.8787 19.5918C31.3161 19.044 31 18.301 31 17.5263C31 16.7516 31.3161 16.0086 31.8787 15.4608C32.4413 14.913 33.2044 14.6053 34 14.6053Z" fill="#292929"/>
</svg>
