<svg width="22" height="22" viewBox="0 0 22 22" fill="none" xmlns="http://www.w3.org/2000/svg">
<path fill-rule="evenodd" clip-rule="evenodd" d="M10.3721 2.62791C10.3721 2.46138 10.4382 2.30167 10.556 2.18391C10.6738 2.06615 10.8335 2 11 2C15.9705 2 20 6.02949 20 11C20 15.9705 15.9705 20 11 20C6.02949 20 2 15.9705 2 11C2 10.8335 2.06615 10.6738 2.18391 10.556C2.30167 10.4382 2.46138 10.3721 2.62791 10.3721C2.79444 10.3721 2.95415 10.4382 3.0719 10.556C3.18966 10.6738 3.25581 10.8335 3.25581 11C3.25581 12.5317 3.71 14.0289 4.56094 15.3024C5.41189 16.576 6.62136 17.5686 8.03643 18.1547C9.45149 18.7408 11.0086 18.8942 12.5108 18.5954C14.013 18.2966 15.3929 17.559 16.476 16.476C17.559 15.3929 18.2966 14.013 18.5954 12.5108C18.8942 11.0086 18.7408 9.45149 18.1547 8.03643C17.5686 6.62136 16.576 5.41189 15.3024 4.56094C14.0289 3.71 12.5317 3.25581 11 3.25581C10.8335 3.25581 10.6738 3.18966 10.556 3.0719C10.4382 2.95415 10.3721 2.79444 10.3721 2.62791ZM11 7.86047C11.1665 7.86047 11.3262 7.92662 11.444 8.04437C11.5618 8.16213 11.6279 8.32184 11.6279 8.48837V11.2093H14.3488C14.5154 11.2093 14.6751 11.2755 14.7928 11.3932C14.9106 11.511 14.9767 11.6707 14.9767 11.8372C14.9767 12.0037 14.9106 12.1635 14.7928 12.2812C14.6751 12.399 14.5154 12.4651 14.3488 12.4651H11C10.8335 12.4651 10.6738 12.399 10.556 12.2812C10.4382 12.1635 10.3721 12.0037 10.3721 11.8372V8.48837C10.3721 8.32184 10.4382 8.16213 10.556 8.04437C10.6738 7.92662 10.8335 7.86047 11 7.86047ZM8.57209 2.96112C8.60181 3.03807 8.61607 3.12013 8.61406 3.2026C8.61204 3.28508 8.5938 3.36634 8.56037 3.44176C8.52694 3.51718 8.47897 3.58527 8.41921 3.64214C8.35945 3.69901 8.28907 3.74355 8.21209 3.77321C8.09371 3.81858 7.97646 3.86688 7.86047 3.91805C7.78461 3.95533 7.702 3.97691 7.6176 3.98149C7.5332 3.98608 7.44875 3.97358 7.3693 3.94474C7.28984 3.91591 7.21703 3.87132 7.15522 3.81367C7.09342 3.75601 7.04389 3.68648 7.0096 3.60922C6.97531 3.53196 6.95698 3.44858 6.95569 3.36406C6.95441 3.27955 6.9702 3.19565 7.00212 3.11738C7.03404 3.03912 7.08143 2.9681 7.14146 2.90859C7.20148 2.84909 7.2729 2.80231 7.35144 2.77107C7.4854 2.71079 7.62186 2.65386 7.76 2.60112C7.83696 2.5714 7.91902 2.55714 8.00149 2.55915C8.08396 2.56117 8.16523 2.57941 8.24064 2.61284C8.31606 2.64627 8.38415 2.69424 8.44102 2.754C8.49789 2.81376 8.54243 2.88414 8.57209 2.96112ZM5.68205 4.50326C5.79679 4.62385 5.85896 4.78507 5.85487 4.95148C5.85079 5.11789 5.7808 5.27587 5.66028 5.3907C5.56852 5.47836 5.47891 5.56824 5.39153 5.66028C5.27663 5.78096 5.11849 5.85105 4.9519 5.85513C4.78532 5.85921 4.62394 5.79695 4.50326 5.68205C4.38258 5.56714 4.31249 5.409 4.3084 5.24241C4.30432 5.07583 4.36658 4.91445 4.48149 4.79377C4.58363 4.68744 4.68744 4.58363 4.79377 4.48149C4.91436 4.36674 5.07558 4.30458 5.24199 4.30866C5.40841 4.31274 5.56722 4.38274 5.68205 4.50326ZM3.59907 7.03246C3.67444 7.06594 3.74248 7.11393 3.79931 7.1737C3.85613 7.23347 3.90062 7.30384 3.93024 7.38081C3.95986 7.45778 3.97403 7.53983 3.97194 7.62227C3.96985 7.70471 3.95153 7.78594 3.91805 7.8613C3.86698 7.97684 3.81758 8.09405 3.77237 8.21209C3.70979 8.36371 3.59037 8.48481 3.43965 8.54951C3.28893 8.61421 3.11887 8.61737 2.96586 8.55831C2.81284 8.49924 2.68901 8.38265 2.62084 8.23346C2.55268 8.08428 2.5456 7.91434 2.60112 7.76C2.65386 7.62186 2.70995 7.48623 2.77023 7.35144C2.8037 7.27607 2.85169 7.20803 2.91146 7.1512C2.97123 7.09438 3.04161 7.04989 3.11858 7.02027C3.19555 6.99065 3.27759 6.97648 3.36004 6.97857C3.44248 6.98066 3.5237 6.99898 3.59907 7.03246Z" fill="black"/>
</svg>
