<svg width="21" height="21" viewBox="0 0 21 21" fill="none" xmlns="http://www.w3.org/2000/svg">
<path d="M10.5 14C12.433 14 14 12.433 14 10.5C14 8.567 12.433 7 10.5 7C8.567 7 7 8.567 7 10.5C7 12.433 8.567 14 10.5 14Z" fill="black" fill-opacity="0.79"/>
<path d="M11.375 3.56038V1.75H9.625V3.56038C8.08526 3.75697 6.65435 4.45915 5.55675 5.55675C4.45915 6.65435 3.75697 8.08526 3.56038 9.625H1.75V11.375H3.56038C3.75668 12.9149 4.45877 14.3459 5.55642 15.4436C6.65408 16.5412 8.08515 17.2433 9.625 17.4396V19.25H11.375V17.4396C12.9149 17.2435 14.3461 16.5414 15.4437 15.4437C16.5414 14.3461 17.2435 12.9149 17.4396 11.375H19.25V9.625H17.4396C17.2433 8.08515 16.5412 6.65408 15.4436 5.55642C14.3459 4.45877 12.9149 3.75668 11.375 3.56038ZM10.5 15.75C7.60463 15.75 5.25 13.3954 5.25 10.5C5.25 7.60463 7.60463 5.25 10.5 5.25C13.3954 5.25 15.75 7.60463 15.75 10.5C15.75 13.3954 13.3954 15.75 10.5 15.75Z" fill="black" fill-opacity="0.79"/>
</svg>
