<svg width="24" height="24" viewBox="0 0 24 24" fill="none" xmlns="http://www.w3.org/2000/svg">
<path d="M9 12H22M22 12L18.5 9M22 12L18.5 15" stroke="#F70000" stroke-width="1.5" stroke-linecap="round" stroke-linejoin="round"/>
<path d="M14.998 7C14.986 4.825 14.889 3.647 14.121 2.879C13.242 2 11.828 2 9.00005 2H8.00005C5.17105 2 3.75705 2 2.87805 2.879C2.00005 3.757 2.00005 5.172 2.00005 8V16C2.00005 18.828 2.00005 20.243 2.87805 21.121C3.64705 21.89 4.82505 21.986 7.00005 21.998M14.998 17C14.986 19.175 14.889 20.353 14.121 21.121C13.48 21.763 12.553 21.936 11 21.983" stroke="#F70000" stroke-width="1.5" stroke-linecap="round"/>
</svg>
