<svg width="41" height="29" viewBox="0 0 41 29" fill="none" xmlns="http://www.w3.org/2000/svg">
<path d="M38.3787 23.2422C39.1608 22.913 39.8237 22.3837 40.2884 21.7171C40.7532 21.0506 41.0003 20.2749 41.0002 19.4826V16.6181C41.0004 15.317 40.5342 14.0523 39.6742 13.0206C38.8141 11.9888 37.6083 11.2478 36.2442 10.9126L30.8808 9.5949L26.9294 3.03693C26.3745 2.1163 25.5625 1.34923 24.5775 0.815237C23.5926 0.281243 22.4705 -0.000230348 21.3278 1.41441e-07H12.6639C11.3191 -5.04383e-05 10.0083 0.389951 8.91734 1.11474C7.8264 1.83952 7.01064 2.86233 6.58566 4.03822L4.47671 9.86648C3.17805 10.2445 2.04391 10.9941 1.23891 12.0065C0.433915 13.0188 -5.31238e-05 14.2413 4.87763e-09 15.4964V19.4826C4.87763e-09 21.1522 1.07626 22.5904 2.62145 23.2422C2.82666 24.6238 3.55596 25.894 4.68013 26.8275C5.8043 27.761 7.25076 28.2977 8.76322 28.3424C10.2757 28.3871 11.7565 27.9369 12.9432 27.0717C14.13 26.2065 14.9461 24.982 15.2469 23.6153H25.7532C26.0541 24.982 26.8702 26.2065 28.057 27.0717C29.2437 27.9369 30.7245 28.3871 32.237 28.3424C33.7494 28.2977 35.1959 27.761 36.3201 26.8275C37.4442 25.894 38.1735 24.6238 38.3787 23.2422ZM12.6639 2.36153H15.3751V9.44612H7.32878L9.01492 4.78446C9.27002 4.07862 9.75978 3.46472 10.4148 3.02982C11.0697 2.59492 11.8567 2.3611 12.6639 2.36153ZM24.6872 4.18463L27.8622 9.44612H17.9376V2.36153H21.3278C22.0133 2.36174 22.6862 2.53089 23.2769 2.85144C23.8676 3.17199 24.3545 3.63229 24.6872 4.18463ZM5.12502 22.4345C5.12502 21.9694 5.22445 21.5087 5.41761 21.079C5.61078 20.6492 5.89391 20.2587 6.25084 19.9298C6.60776 19.6008 7.0315 19.3399 7.49784 19.1619C7.96419 18.9839 8.46402 18.8922 8.96879 18.8922C9.47356 18.8922 9.97339 18.9839 10.4397 19.1619C10.9061 19.3399 11.3298 19.6008 11.6867 19.9298C12.0437 20.2587 12.3268 20.6492 12.52 21.079C12.7131 21.5087 12.8126 21.9694 12.8126 22.4345C12.8126 23.374 12.4076 24.275 11.6867 24.9393C10.9659 25.6036 9.98822 25.9768 8.96879 25.9768C7.94936 25.9768 6.97168 25.6036 6.25084 24.9393C5.52999 24.275 5.12502 23.374 5.12502 22.4345ZM28.1876 22.4345C28.1876 21.4951 28.5926 20.5941 29.3134 19.9298C30.0343 19.2655 31.012 18.8922 32.0314 18.8922C33.0508 18.8922 34.0285 19.2655 34.7494 19.9298C35.4702 20.5941 35.8752 21.4951 35.8752 22.4345C35.8752 23.374 35.4702 24.275 34.7494 24.9393C34.0285 25.6036 33.0508 25.9768 32.0314 25.9768C31.012 25.9768 30.0343 25.6036 29.3134 24.9393C28.5926 24.275 28.1876 23.374 28.1876 22.4345Z" fill="#929292"/>
</svg>
