<svg width="22" height="22" viewBox="0 0 22 22" fill="none" xmlns="http://www.w3.org/2000/svg">
<path fill-rule="evenodd" clip-rule="evenodd" d="M11.3667 15.125H12.6042C15.7685 15.125 18.3333 12.5602 18.3333 9.39583C18.3333 6.2315 15.7685 3.66667 12.6042 3.66667H9.39583C6.2315 3.66667 3.66667 6.2315 3.66667 9.39583C3.66667 13.09 5.77317 15.2992 7.98875 16.6311C9.10067 17.2993 10.2208 17.7311 11.0674 17.9955C11.1714 18.0281 11.2718 18.0583 11.3667 18.0858V15.125ZM12.2833 19.25C12.2833 19.25 11.9332 19.1909 11.3667 19.0378C8.97875 18.3906 2.75 16.0646 2.75 9.39583C2.75 5.7255 5.7255 2.75 9.39583 2.75H12.6042C16.2745 2.75 19.25 5.7255 19.25 9.39583C19.25 13.0662 16.2745 16.0417 12.6042 16.0417H12.2833V19.25Z" fill="black"/>
<path fill-rule="evenodd" clip-rule="evenodd" d="M12.6916 5.72088C13.1637 6.03438 13.5193 6.54267 13.5193 7.22421C13.5193 7.94746 13.2278 8.47913 12.7553 8.80454C12.5688 8.93085 12.3629 9.0259 12.1457 9.08596V9.78813C12.1457 9.97046 12.0733 10.1453 11.9444 10.2743C11.8154 10.4032 11.6406 10.4756 11.4582 10.4756C11.2759 10.4756 11.101 10.4032 10.9721 10.2743C10.8432 10.1453 10.7707 9.97046 10.7707 9.78813V8.50617C10.7707 8.33174 10.8369 8.16382 10.9561 8.03642C11.0752 7.90902 11.2383 7.83167 11.4124 7.82004C11.6663 7.80309 11.8588 7.75267 11.9748 7.67246C12.0218 7.64132 12.0597 7.59832 12.0848 7.54779C12.1123 7.49279 12.1443 7.39471 12.1443 7.22375C12.1443 7.08075 12.0884 6.97075 11.9303 6.86534C11.7506 6.74617 11.4619 6.65817 11.1149 6.64717C10.7721 6.63617 10.4389 6.70308 10.1937 6.82179C9.94801 6.94096 9.85772 7.07479 9.83251 7.17334C9.81006 7.26079 9.77061 7.34297 9.7164 7.41517C9.66219 7.48738 9.59429 7.5482 9.51657 7.59417C9.43886 7.64013 9.35285 7.67034 9.26346 7.68306C9.17407 7.69579 9.08305 7.69079 8.9956 7.66834C8.90814 7.64588 8.82597 7.60643 8.75376 7.55222C8.68155 7.49801 8.62073 7.43011 8.57477 7.35239C8.5288 7.27468 8.49859 7.18867 8.48587 7.09928C8.47314 7.00989 8.47815 6.91887 8.5006 6.83142C8.65872 6.21679 9.11843 5.81529 9.59418 5.58475C10.0708 5.35329 10.6314 5.25567 11.1585 5.27263C11.6823 5.28913 12.2415 5.42113 12.6916 5.72088Z" fill="black"/>
<path d="M12.3748 12.375C12.3748 12.6182 12.2783 12.8513 12.1064 13.0232C11.9344 13.1951 11.7013 13.2917 11.4582 13.2917C11.2151 13.2917 10.9819 13.1951 10.81 13.0232C10.6381 12.8513 10.5415 12.6182 10.5415 12.375C10.5415 12.1319 10.6381 11.8988 10.81 11.7269C10.9819 11.555 11.2151 11.4584 11.4582 11.4584C11.7013 11.4584 11.9344 11.555 12.1064 11.7269C12.2783 11.8988 12.3748 12.1319 12.3748 12.375Z" fill="black"/>
</svg>
