<svg width="22" height="22" viewBox="0 0 22 22" fill="none" xmlns="http://www.w3.org/2000/svg">
<path d="M11 15.0902C11.1601 15.0902 11.2939 15.0361 11.4015 14.9279C11.5097 14.8197 11.5638 14.6856 11.5638 14.5255C11.5638 14.366 11.5097 14.2322 11.4015 14.124C11.2939 14.0158 11.1601 13.9618 11 13.9618C10.8399 13.9618 10.7061 14.0158 10.5985 14.124C10.4903 14.2322 10.4363 14.366 10.4363 14.5255C10.4363 14.6856 10.4903 14.8197 10.5985 14.9279C10.7061 15.0361 10.8399 15.0902 11 15.0902ZM10.5417 12.0578H11.4583V6.55783H10.5417V12.0578ZM11.0028 19.25C9.86242 19.25 8.78992 19.0337 7.78525 18.601C6.78119 18.1677 5.90761 17.5798 5.1645 16.8373C4.42139 16.0954 3.83319 15.2228 3.39992 14.2193C2.96664 13.2159 2.75 12.1437 2.75 11.0028C2.75 9.86242 2.96633 8.78992 3.399 7.78525C3.83228 6.78119 4.42017 5.90761 5.16267 5.1645C5.90456 4.42139 6.77722 3.83319 7.78067 3.39992C8.78411 2.96664 9.85631 2.75 10.9972 2.75C12.1376 2.75 13.2101 2.96633 14.2148 3.399C15.2188 3.83228 16.0924 4.42017 16.8355 5.16267C17.5786 5.90456 18.1668 6.77722 18.6001 7.78067C19.0334 8.78411 19.25 9.85631 19.25 10.9972C19.25 12.1376 19.0337 13.2101 18.601 14.2148C18.1677 15.2188 17.5798 16.0924 16.8373 16.8355C16.0954 17.5786 15.2228 18.1668 14.2193 18.6001C13.2159 19.0334 12.1437 19.25 11.0028 19.25ZM11 18.3333C13.0472 18.3333 14.7812 17.6229 16.2021 16.2021C17.6229 14.7812 18.3333 13.0472 18.3333 11C18.3333 8.95278 17.6229 7.21875 16.2021 5.79792C14.7812 4.37708 13.0472 3.66667 11 3.66667C8.95278 3.66667 7.21875 4.37708 5.79792 5.79792C4.37708 7.21875 3.66667 8.95278 3.66667 11C3.66667 13.0472 4.37708 14.7812 5.79792 16.2021C7.21875 17.6229 8.95278 18.3333 11 18.3333Z" fill="black"/>
</svg>
