<svg width="22" height="22" viewBox="0 0 22 22" fill="none" xmlns="http://www.w3.org/2000/svg">
<path d="M11.0005 13.7003C12.5821 13.7003 13.8642 12.4915 13.8642 11.0003C13.8642 9.50912 12.5821 8.30029 11.0005 8.30029C9.41886 8.30029 8.13672 9.50912 8.13672 11.0003C8.13672 12.4915 9.41886 13.7003 11.0005 13.7003Z" stroke="black"/>
<path d="M3.03972 9.776C3.49124 10.0424 3.78143 10.4978 3.78143 11C3.78143 11.5022 3.49124 11.9576 3.03972 12.224C2.7333 12.4067 2.53474 12.5516 2.39442 12.7244C2.24177 12.912 2.12982 13.1261 2.06496 13.3545C2.0001 13.5829 1.9836 13.8211 2.0164 14.0555C2.06604 14.4101 2.28846 14.7737 2.73234 15.5C3.17813 16.2263 3.40055 16.589 3.70125 16.8077C3.90022 16.9516 4.12731 17.0572 4.36956 17.1183C4.6118 17.1795 4.86445 17.195 5.11308 17.1641C5.34218 17.1353 5.57414 17.0471 5.89488 16.8869C6.12442 16.7685 6.38213 16.707 6.64379 16.7082C6.90545 16.7095 7.16247 16.7735 7.39072 16.8941C7.85178 17.1461 8.12575 17.6096 8.14484 18.1118C8.1582 18.4538 8.19257 18.6878 8.28134 18.8885C8.37729 19.107 8.51798 19.3056 8.69537 19.4728C8.87276 19.6401 9.08337 19.7727 9.31516 19.8632C9.66549 20 10.1103 20 11 20C11.8897 20 12.3345 20 12.6848 19.8632C12.9166 19.7727 13.1272 19.6401 13.3046 19.4728C13.482 19.3056 13.6227 19.107 13.7187 18.8885C13.8065 18.6878 13.8418 18.4538 13.8552 18.1118C13.8743 17.6096 14.1482 17.1452 14.6093 16.8941C14.8375 16.7735 15.0946 16.7095 15.3562 16.7082C15.6179 16.707 15.8756 16.7685 16.1051 16.8869C16.4259 17.0471 16.6588 17.1353 16.8879 17.1641C17.3897 17.2263 17.8972 17.0981 18.2988 16.8077C18.5994 16.5899 18.8219 16.2263 19.2667 15.5C19.4653 15.176 19.6189 14.9249 19.7335 14.7143M18.9603 12.2249C18.7368 12.0968 18.5515 11.9173 18.4217 11.7032C18.292 11.4891 18.2221 11.2475 18.2186 11.0009C18.2186 10.4978 18.5088 10.0424 18.9603 9.7751C19.2667 9.5933 19.4643 9.4484 19.6056 9.2756C19.7582 9.08801 19.8702 8.8739 19.935 8.64551C19.9999 8.41711 20.0164 8.17891 19.9836 7.9445C19.934 7.5899 19.7115 7.2263 19.2677 6.5C18.8219 5.7737 18.5994 5.411 18.2988 5.1923C18.0998 5.04838 17.8727 4.94283 17.6304 4.88168C17.3882 4.82053 17.1355 4.80497 16.8869 4.8359C16.6578 4.8647 16.4259 4.9529 16.1042 5.1131C15.8747 5.23137 15.6172 5.29276 15.3557 5.2915C15.0943 5.29024 14.8374 5.22638 14.6093 5.1059C14.3844 4.97981 14.1973 4.80192 14.0654 4.58891C13.9334 4.37591 13.8611 4.13479 13.8552 3.8882C13.8418 3.5462 13.8074 3.3122 13.7187 3.1115C13.6227 2.89296 13.482 2.6944 13.3046 2.52715C13.1272 2.35991 12.9166 2.22726 12.6848 2.1368C12.3345 2 11.8897 2 11 2C10.1103 2 9.66549 2 9.31516 2.1368C9.08337 2.22726 8.87276 2.35991 8.69537 2.52715C8.51798 2.6944 8.37729 2.89296 8.28134 3.1115C8.19352 3.3122 8.1582 3.5462 8.14484 3.8882C8.13889 4.13479 8.06656 4.37591 7.93465 4.58891C7.80274 4.80192 7.61557 4.97981 7.39072 5.1059C7.16247 5.22654 6.90545 5.29049 6.64379 5.29175C6.38213 5.29301 6.12442 5.23153 5.89488 5.1131C5.57414 4.9529 5.34122 4.8647 5.11212 4.8359C4.61032 4.77368 4.10284 4.90188 3.70125 5.1923C3.40151 5.411 3.17813 5.7737 2.7333 6.5C2.53474 6.824 2.38106 7.0751 2.26651 7.2857" stroke="black" stroke-linecap="round"/>
</svg>
