<svg width="13" height="13" viewBox="0 0 13 13" fill="none" xmlns="http://www.w3.org/2000/svg">
<path d="M5.54658 0.692685C5.84668 -0.230915 7.15332 -0.230916 7.45342 0.692685L8.30058 3.29996C8.43478 3.71301 8.81969 3.99266 9.254 3.99266H11.9954C12.9666 3.99266 13.3704 5.23536 12.5847 5.80617L10.3668 7.41756C10.0155 7.67284 9.86843 8.12532 10.0026 8.53837L10.8498 11.1456C11.1499 12.0692 10.0928 12.8373 9.30713 12.2665L7.08925 10.6551C6.73789 10.3998 6.26211 10.3998 5.91075 10.6551L3.69287 12.2665C2.90721 12.8373 1.85011 12.0692 2.15021 11.1456L2.99736 8.53837C3.13157 8.12533 2.98455 7.67284 2.63319 7.41756L0.415308 5.80617C-0.370354 5.23536 0.0334219 3.99266 1.00455 3.99266H3.746C4.18031 3.99266 4.56522 3.71301 4.69942 3.29996L5.54658 0.692685Z" fill="#FFE600"/>
</svg>
