<svg width="15" height="20" viewBox="0 0 15 20" fill="none" xmlns="http://www.w3.org/2000/svg">
<path d="M7.25389 0C3.24352 0 0 3.13 0 7C0 12.25 7.25389 20 7.25389 20C7.25389 20 14.5078 12.25 14.5078 7C14.5078 3.13 11.2642 0 7.25389 0ZM7.25389 9.5C6.5668 9.5 5.90785 9.23661 5.422 8.76777C4.93616 8.29893 4.66321 7.66304 4.66321 7C4.66321 6.33696 4.93616 5.70107 5.422 5.23223C5.90785 4.76339 6.5668 4.5 7.25389 4.5C7.94097 4.5 8.59992 4.76339 9.08577 5.23223C9.57161 5.70107 9.84456 6.33696 9.84456 7C9.84456 7.66304 9.57161 8.29893 9.08577 8.76777C8.59992 9.23661 7.94097 9.5 7.25389 9.5Z" fill="#EA6D1B"/>
</svg>
