<svg width="27" height="24" viewBox="0 0 27 24" fill="none" xmlns="http://www.w3.org/2000/svg">
<g clip-path="url(#clip0_18_242)">
<path d="M27 2.92246C25.989 3.41012 24.9165 3.73023 23.8184 3.87212C24.9622 3.12571 25.8405 1.94374 26.254 0.535432C25.1667 1.23796 23.9771 1.73294 22.7365 1.99897C21.726 0.826877 20.2865 0.0943604 18.6932 0.0943604C15.6339 0.0943604 13.1536 2.79476 13.1536 6.12536C13.1536 6.59813 13.2027 7.05838 13.2971 7.49991C8.69337 7.24831 4.61173 4.84728 1.87956 1.19836C1.40284 2.08912 1.12968 3.12525 1.12968 4.2304C1.12968 6.32288 2.10769 8.16881 3.59395 9.25042C2.71429 9.22042 1.85398 8.96174 1.08485 8.49597C1.08454 8.52123 1.08454 8.54649 1.08454 8.57187C1.08454 11.494 2.99394 13.9317 5.52793 14.4857C4.71222 14.7273 3.8566 14.7626 3.02643 14.5891C3.73127 16.9852 5.77705 18.7288 8.20093 18.7776C6.30513 20.3951 3.91658 21.3594 1.32142 21.3594C0.874231 21.3594 0.433371 21.3308 0 21.2751C2.45141 22.9863 5.36309 23.9848 8.49129 23.9848C18.6803 23.9848 24.2519 14.7946 24.2519 6.82481C24.2519 6.56322 24.2466 6.30313 24.2359 6.04452C25.3203 5.19095 26.2564 4.13373 27 2.92246Z" fill="#55ACEE"/>
</g>
<defs>
<clipPath id="clip0_18_242">
<rect width="27" height="24" fill="white"/>
</clipPath>
</defs>
</svg>
